<?xml version="1.0" standalone="no"?>
<!DOCTYPE svg PUBLIC "-//W3C//DTD SVG 20010904//EN"
 "http://www.w3.org/TR/2001/REC-SVG-20010904/DTD/svg10.dtd">
<svg version="1.0" xmlns="http://www.w3.org/2000/svg"
 width="650.000000pt" height="427.000000pt" viewBox="0 0 650.000000 427.000000"
 preserveAspectRatio="xMidYMid meet">

<g transform="translate(0.000000,427.000000) scale(0.100000,-0.100000)"
fill="#000000" stroke="none">
<path d="M2357 3342 c-86 -36 -154 -69 -150 -73 5 -3 83 -39 175 -80 93 -40
167 -73 165 -75 -6 -5 -201 -84 -208 -84 -4 0 -84 36 -178 80 l-170 80 -65
-27 c-36 -14 -66 -29 -66 -32 0 -3 77 -39 170 -80 94 -41 170 -77 170 -80 0
-3 -46 -24 -102 -47 l-102 -41 -173 82 -173 83 -70 -27 c-62 -23 -88 -41 -60
-41 5 0 84 -35 175 -77 l165 -77 -101 -43 c-55 -24 -105 -43 -109 -43 -4 0
-83 37 -175 81 l-167 82 -56 -19 c-97 -33 -98 -32 97 -118 99 -44 179 -81 178
-82 -1 -1 -49 -21 -105 -44 l-104 -43 -46 20 c-26 11 -107 49 -179 84 l-133
63 -57 -24 c-538 -218 -584 -240 -667 -311 -4 -4 23 -61 62 -127 63 -110 72
-131 103 -261 31 -134 34 -142 55 -137 20 5 23 -1 45 -94 22 -99 23 -100 51
-100 16 0 39 -5 51 -12 12 -6 41 -10 64 -9 84 5 159 -57 219 -182 19 -39 34
-77 34 -84 0 -17 14 -16 150 7 108 19 179 25 169 16 -6 -6 -254 -46 -284 -46
-14 0 -25 -6 -25 -14 0 -9 9 -12 27 -10 16 2 20 1 10 -2 -9 -3 -17 -9 -17 -14
0 -5 7 -7 15 -4 8 4 15 1 15 -5 0 -6 -6 -11 -12 -12 -7 0 -4 -4 7 -9 19 -8 19
-9 -2 -9 -26 -1 -27 -8 -13 -69 6 -23 11 -60 12 -82 1 -22 5 -40 9 -40 5 0 7
-6 5 -12 -3 -7 -7 -54 -10 -105 l-6 -92 28 -4 27 -4 -29 -2 c-26 -1 -28 -4
-23 -28 3 -16 8 -37 12 -48 4 -14 2 -12 -8 5 l-15 25 -4 -35 c-2 -19 -3 59 -3
175 0 136 -5 231 -13 270 -20 90 -62 215 -73 215 -6 0 -7 5 -3 12 4 7 3 8 -5
4 -6 -4 -18 -2 -26 4 -8 7 -15 9 -15 4 0 -4 -6 1 -14 11 -12 16 -16 17 -30 6
-13 -11 -16 -9 -21 16 -4 15 -9 34 -11 42 -4 11 -1 11 10 2 8 -6 19 -10 24 -9
6 2 24 -13 40 -32 43 -51 51 -29 11 30 -36 53 -50 61 -112 66 -20 2 -43 6 -50
11 -6 4 -1 -7 13 -24 14 -17 28 -29 31 -27 4 2 6 -2 5 -9 0 -6 13 -48 31 -92
52 -133 77 -284 76 -465 -1 -85 -6 -177 -12 -205 -7 -38 -8 -17 -4 91 3 78 2
167 -2 199 l-7 58 -15 -32 c-24 -48 -58 -38 -77 23 -5 14 -9 16 -20 7 -11 -9
-16 -9 -22 0 -5 8 -3 9 6 4 9 -5 11 -4 6 4 -4 6 -12 8 -18 5 -16 -10 -59 -14
-54 -5 3 4 1 13 -5 21 -5 8 -9 11 -9 5 0 -5 -14 -10 -30 -11 -34 -1 -34 -1
-15 86 8 36 14 72 14 80 0 27 -15 -10 -29 -68 -6 -28 -16 -55 -21 -58 -5 -3
-7 -10 -4 -15 4 -5 1 -9 -6 -9 -8 0 -9 -4 0 -13 8 -10 7 -14 -3 -14 -8 0 -13
7 -11 16 4 24 -6 35 -17 20 -7 -10 -8 -8 -5 8 3 13 0 23 -5 23 -7 0 -8 -14 -5
-35 3 -19 2 -35 -4 -35 -5 0 -9 1 -9 3 -1 1 -9 43 -20 92 -15 70 -18 78 -14
35 3 -30 8 -63 11 -74 3 -11 1 -16 -5 -12 -6 3 -13 0 -16 -6 -3 -7 -3 1 0 19
5 33 -14 115 -26 108 -3 -2 -15 -40 -25 -84 -17 -75 -17 -82 -2 -99 27 -29 20
-38 -8 -12 -14 13 -23 30 -21 37 3 7 0 12 -6 10 -7 -1 -13 7 -15 18 -3 16 -2
17 6 5 9 -12 11 -9 11 15 1 29 29 143 44 178 5 10 4 17 -3 17 -6 0 -20 -33
-31 -72 -12 -40 -25 -80 -31 -88 -13 -20 -16 -30 -23 -62 -4 -16 -10 -27 -14
-27 -4 1 -23 1 -43 0 -28 -1 -38 -6 -42 -21 -3 -11 -1 -22 3 -25 5 -3 7 -20 5
-37 -2 -18 1 -38 7 -45 5 -7 8 -20 4 -28 -6 -16 -26 -16 -37 -1 -4 5 -12 -1
-18 -13 -11 -19 -14 -20 -27 -6 -14 13 -14 17 0 31 20 20 21 30 1 14 -10 -9
-15 -9 -15 -1 0 6 -4 11 -9 11 -23 0 5 -65 34 -78 14 -6 25 -18 25 -25 0 -8 7
-14 15 -14 18 0 20 24 3 29 -8 3 -8 9 0 24 8 14 12 15 12 4 0 -12 3 -11 11 3
5 9 15 17 20 17 6 0 8 -4 5 -9 -4 -5 2 -7 13 -4 14 3 18 12 16 35 -4 42 -18
53 -41 31 -17 -17 -18 -17 -11 0 4 10 7 25 7 34 0 9 6 13 15 9 17 -6 21 9 5
19 -17 10 -11 35 8 34 10 0 12 -3 5 -6 -18 -7 -16 -20 2 -20 8 0 15 7 15 15 0
9 3 12 7 8 4 -4 6 -58 5 -119 -4 -153 24 -365 64 -479 7 -22 9 -38 4 -38 -6 0
-10 -4 -10 -10 0 -5 6 -10 13 -10 7 0 23 -20 35 -45 12 -24 37 -62 57 -83 19
-22 35 -46 35 -54 0 -28 28 -42 56 -29 31 14 45 14 41 0 -1 -6 19 -12 51 -14
53 -3 53 -3 35 18 -18 19 -18 20 4 6 19 -11 25 -11 44 6 12 11 20 15 16 9 -3
-5 9 -15 26 -22 31 -10 31 -10 9 5 -12 8 -22 20 -22 25 0 7 5 7 13 1 29 -22
108 6 87 32 -5 6 -7 15 -3 18 12 12 21 7 26 -14 5 -18 12 -21 37 -17 17 3 33
1 36 -3 2 -4 16 -2 31 6 29 15 63 2 63 -24 0 -8 7 -22 16 -32 12 -13 12 -19 3
-25 -7 -4 -10 -3 -6 3 4 6 -1 17 -10 24 -15 12 -16 12 -10 -4 5 -14 3 -16 -9
-9 -18 10 -61 4 -70 -10 -3 -5 5 -6 19 -3 14 4 28 2 32 -4 3 -6 11 -8 17 -5 6
4 8 2 5 -4 -12 -17 3 -40 22 -35 12 3 20 -2 24 -16 8 -32 255 -141 307 -135
14 1 25 3 25 4 0 1 12 3 28 4 35 4 48 16 16 17 -13 0 -33 4 -43 8 -19 7 -19 8
2 13 14 4 20 2 15 -5 -4 -7 0 -8 11 -4 10 4 24 7 32 7 9 0 13 4 9 9 -3 6 12 8
35 6 22 -2 40 1 40 6 0 5 6 9 14 9 7 0 24 11 38 23 23 21 24 25 9 36 -14 11
-14 11 3 6 25 -7 58 4 50 16 -3 6 -12 8 -18 6 -7 -3 -13 1 -13 8 0 26 75 -8
98 -44 9 -13 9 -13 3 4 -11 31 -16 81 -7 69 4 -6 17 -13 28 -16 11 -3 29 -9
40 -13 35 -14 -27 32 -66 48 -33 13 -31 14 71 19 58 3 155 13 216 23 120 20
178 14 114 -11 -33 -14 -34 -14 -5 -9 17 2 41 7 55 11 17 4 12 -2 -18 -21 -48
-30 -51 -42 -6 -25 20 8 30 8 32 1 2 -6 8 -11 12 -11 13 0 32 78 25 100 -4 11
-3 25 2 32 4 7 8 48 8 92 0 59 4 81 15 87 8 4 112 24 230 44 269 45 294 49
464 81 77 14 150 24 163 21 12 -2 20 -1 18 3 -6 9 181 44 199 37 8 -3 20 1 26
9 7 8 18 14 24 14 6 0 4 -5 -4 -10 -9 -6 -10 -10 -3 -10 6 0 20 -3 30 -7 16
-5 16 -3 -3 18 -12 13 -30 58 -42 99 -17 65 -383 1335 -398 1382 -4 13 5 22
35 34 23 9 41 19 41 23 0 3 -19 64 -42 134 l-42 128 -40 -7 c-23 -3 -41 -7
-42 -8 -9 -16 -188 -302 -190 -305 -9 -10 -222 -36 -217 -26 4 5 51 77 105
158 90 138 96 148 70 143 -15 -3 -49 -8 -77 -11 -27 -4 -57 -9 -66 -11 -9 -2
-58 -72 -110 -155 -51 -83 -97 -153 -103 -156 -14 -9 -216 -40 -216 -34 0 3
45 74 100 156 58 88 95 151 88 153 -7 1 -46 -4 -87 -11 l-74 -12 -93 -149
c-52 -82 -97 -153 -101 -157 -14 -13 -224 -46 -220 -35 3 6 46 73 97 150 50
76 94 144 96 151 7 17 -167 -10 -178 -28 -5 -7 -49 -78 -99 -158 l-91 -147
-107 -16 c-58 -9 -109 -16 -112 -16 -4 0 40 70 98 156 57 86 103 158 100 160
-2 2 -121 -13 -264 -34 l-261 -38 -42 29 c-45 32 -45 35 15 60 22 9 105 44
185 78 443 187 694 293 1040 439 212 89 424 183 471 208 l86 46 -71 123 c-39
67 -73 122 -76 122 -3 -1 -76 -31 -163 -67z m512 -1187 c-5 -4 -223 -39 -539
-87 -74 -11 -137 -21 -138 -23 -2 -2 1 -20 8 -39 6 -20 10 -42 7 -49 -3 -6
-11 9 -18 36 -14 52 -16 52 -101 38 -27 -4 -48 -4 -48 0 0 4 17 10 38 13 20 3
181 28 357 55 176 28 331 52 345 54 37 6 94 8 89 2z m-201 -72 c-10 -2 -18 -9
-18 -15 0 -5 7 -8 15 -4 8 3 15 1 15 -4 0 -6 -4 -10 -10 -10 -5 0 -10 -4 -10
-9 0 -5 10 -7 22 -3 14 3 19 2 14 -6 -10 -17 -43 -15 -50 4 -13 34 -7 54 17
53 16 -1 18 -2 5 -6z m-51 -17 c-3 -8 1 -20 9 -26 8 -7 14 -17 14 -23 0 -5 -9
-2 -20 8 -19 17 -20 17 -21 -1 0 -18 -1 -18 -9 1 -12 28 -13 55 -1 37 7 -11 9
-11 14 2 4 9 9 16 13 16 3 0 4 -6 1 -14z m-110 -31 c1 -19 -3 -35 -8 -35 -5 0
-9 9 -9 20 0 11 -8 24 -17 27 -15 6 -14 8 7 14 14 4 25 7 26 8 0 1 0 -15 1
-34z m38 13 c-4 -17 -4 -19 3 -9 8 11 12 9 22 -9 11 -20 10 -22 -6 -16 -10 4
-21 1 -25 -6 -4 -7 -10 -10 -14 -7 -8 9 6 69 17 69 5 0 6 -10 3 -22z m-517
-24 c-6 -5 -178 -33 -207 -34 -40 0 9 14 101 29 98 17 118 18 106 5z m-228
-32 c0 -4 -84 -20 -187 -36 -104 -16 -200 -32 -214 -35 l-26 -6 52 -190 c74
-269 69 -245 43 -244 -16 1 -18 3 -6 6 13 3 15 9 8 26 -6 12 -28 92 -51 177
-22 85 -44 171 -49 191 l-10 35 -337 -53 c-374 -58 -361 -57 -348 -44 6 5 60
16 120 25 61 9 254 38 430 66 351 56 556 88 568 89 4 1 7 -2 7 -7z m70 -42
c-7 -4 -9 -18 -4 -36 4 -20 3 -26 -4 -19 -5 6 -12 19 -14 29 -1 11 -9 21 -17
24 -10 3 -13 -2 -9 -22 6 -32 -15 -54 -36 -37 -16 13 -27 61 -15 61 5 0 11
-11 15 -25 9 -38 27 -31 19 8 -4 17 -4 29 -1 26 4 -4 19 -4 34 1 30 8 51 2 32
-10z m-122 -18 c2 -8 -2 -10 -13 -6 -13 5 -16 2 -13 -12 2 -11 11 -18 21 -18
21 2 22 -12 2 -20 -9 -3 -21 4 -31 19 -13 21 -14 28 -4 40 14 17 32 15 38 -3z
m512 -147 c24 -82 44 -151 45 -153 2 -2 290 43 525 83 147 25 213 31 155 14
-25 -7 -417 -72 -722 -120 -46 -7 -87 -16 -93 -19 -8 -5 -3 -37 15 -104 14
-53 25 -102 22 -109 -2 -6 -16 36 -32 93 -16 58 -31 108 -34 112 -4 4 -55 -2
-115 -12 -121 -22 -150 -25 -126 -11 8 4 96 21 195 36 99 16 183 31 188 35 4
3 -4 44 -18 91 -23 77 -55 202 -55 216 0 20 13 -18 50 -152z m-1134 40 c-19
-15 -19 -15 5 -16 17 -1 19 -3 7 -6 -10 -2 -18 -9 -18 -15 0 -5 7 -8 15 -5 8
4 17 2 20 -2 2 -5 -6 -11 -19 -13 -19 -4 -26 0 -30 16 -11 41 -7 56 17 56 21
-1 22 -1 3 -15z m-63 -45 c-3 -11 -9 -18 -13 -15 -10 6 -19 53 -11 60 10 11
29 -25 24 -45z m27 14 c0 -13 -4 -24 -8 -24 -5 0 -9 13 -9 30 0 16 4 27 9 24
4 -3 8 -16 8 -30z m-86 10 c-16 -13 -16 -15 -2 -10 10 3 20 1 23 -4 4 -6 -1
-10 -9 -10 -9 0 -16 -4 -16 -9 0 -5 9 -7 20 -4 11 3 20 0 20 -6 0 -14 -37 -15
-45 -1 -5 8 -11 7 -21 -1 -10 -8 -14 -8 -14 0 0 6 5 11 10 11 6 0 10 11 10 25
0 19 5 25 22 25 21 0 21 0 2 -16z m-39 -5 c4 -6 0 -9 -11 -7 -15 2 -18 -2 -17
-20 2 -13 -1 -21 -7 -17 -6 3 -10 17 -10 31 0 17 5 24 19 24 11 0 23 -5 26
-11z m-65 -9 c0 -5 -7 -6 -17 -3 -11 4 -14 3 -9 -5 4 -7 14 -12 22 -12 8 0 14
-9 14 -20 0 -22 -17 -26 -40 -9 -12 8 -10 9 8 4 12 -3 22 -2 22 3 0 5 -9 12
-20 15 -11 3 -20 12 -20 21 0 9 8 16 20 16 11 0 20 -4 20 -10z m1510 -210 c0
-12 9 -24 22 -29 13 -4 17 -10 11 -14 -15 -10 -43 2 -43 18 0 7 -3 20 -6 29
-3 9 -1 16 5 16 6 0 11 -9 11 -20z m-50 -10 c0 -10 8 -24 18 -29 15 -9 15 -10
-5 -11 -13 0 -23 6 -23 14 0 8 -3 21 -6 30 -3 9 -1 16 5 16 6 0 11 -9 11 -20z
m-23 -20 l3 -25 -12 23 c-14 28 -34 23 -31 -9 2 -21 2 -22 -8 -6 -15 26 -3 49
23 45 16 -2 24 -11 25 -28z m-72 0 c0 -8 4 -21 8 -27 5 -8 4 -13 -2 -13 -6 0
-11 5 -11 10 0 6 -4 10 -10 10 -5 0 -10 -8 -10 -17 -1 -15 -2 -16 -9 -3 -5 8
-12 25 -16 38 -6 21 -4 23 22 20 17 -2 28 -9 28 -18z m-390 1 c-9 -7 -321 -62
-354 -61 -45 0 19 16 161 40 184 31 206 34 193 21z m-439 -70 c-3 -5 -27 -12
-53 -16 -27 -3 -58 -9 -70 -12 -13 -3 -23 -1 -23 5 0 5 30 14 68 19 37 6 71
11 75 12 5 0 6 -3 3 -8z m-159 -27 c-3 -3 -12 -4 -19 -1 -8 3 -5 6 6 6 11 1
17 -2 13 -5z m-389 -29 c-3 -3 -9 2 -12 12 -6 14 -5 15 5 6 7 -7 10 -15 7 -18z
m-45 -42 c-7 -2 -19 -2 -25 0 -7 3 -2 5 12 5 14 0 19 -2 13 -5z m23 -39 c-3
-8 -2 -12 4 -9 16 10 12 -11 -5 -25 -13 -11 -15 -8 -15 19 0 17 5 31 11 31 6
0 8 -7 5 -16z m1369 -41 c9 -32 23 -82 32 -112 l15 -53 42 5 c22 3 61 9 85 13
32 5 42 4 37 -4 -4 -7 -16 -12 -27 -12 -11 0 -93 -12 -182 -27 -136 -22 -165
-30 -183 -49 -12 -12 -41 -28 -65 -34 -110 -29 -123 -33 -110 -38 11 -4 11 -6
0 -13 -10 -6 -3 -9 21 -10 l35 -1 -40 -9 c-22 -4 -58 -7 -80 -7 l-40 1 36 4
c24 3 39 10 41 21 4 16 -15 17 -246 17 -255 0 -388 12 -479 41 -27 9 -51 23
-54 31 -3 8 -12 12 -21 8 -12 -4 -13 -3 -2 9 6 9 15 15 18 14 18 -5 82 25 82
38 0 22 28 29 48 11 14 -12 28 -13 77 -6 86 14 474 13 580 -1 50 -6 114 -18
144 -27 49 -14 63 -14 161 2 l108 17 -9 32 c-5 17 -19 66 -30 110 l-22 78 -31
-5 c-216 -37 -718 -117 -732 -117 -9 0 -15 3 -12 6 7 7 695 119 749 123 l37 2
17 -58z m-1404 4 c-8 -8 -11 -3 -11 19 1 25 2 27 11 11 8 -14 8 -22 0 -30z
m2297 -43 c-9 -8 -661 -115 -667 -109 -2 3 -2 7 0 8 6 6 609 104 643 106 16 0
27 -2 24 -5z m-1708 -33 c0 -10 -333 -64 -358 -58 -14 4 -14 5 3 7 11 1 92 14
180 30 88 15 163 28 168 29 4 1 7 -3 7 -8z m-1026 -36 c-4 -8 -8 -15 -10 -15
-2 0 -4 7 -4 15 0 8 4 15 10 15 5 0 7 -7 4 -15z m480 -38 c4 -19 3 -26 -4 -22
-5 3 -10 18 -10 32 0 32 5 28 14 -10z m-364 -19 c24 -40 34 -105 22 -138 -9
-24 -10 -23 -16 15 -11 70 -30 120 -46 120 -8 0 -14 -6 -12 -12 1 -7 -3 -13
-9 -13 -5 0 -8 -4 -4 -9 3 -5 1 -12 -5 -16 -18 -11 -10 32 11 59 27 34 35 33
59 -6z m-320 12 c0 -5 -2 -10 -4 -10 -3 0 -8 5 -11 10 -3 6 -1 10 4 10 6 0 11
-4 11 -10z m481 -11 c10 -20 9 -21 -13 -16 -17 5 -37 -2 -64 -19 l-39 -26 35
32 c19 17 40 35 45 40 16 14 23 12 36 -11z m469 1 c0 -5 -7 -7 -15 -4 -8 4
-15 8 -15 10 0 2 7 4 15 4 8 0 15 -4 15 -10z m1499 -50 l-1 -25 -8 25 c-4 14
-8 32 -9 40 -1 13 0 13 9 0 5 -8 9 -26 9 -40z m-1586 33 c-7 -2 -19 -2 -25 0
-7 3 -2 5 12 5 14 0 19 -2 13 -5z m1551 -18 c20 -31 20 -36 0 -28 -9 3 -20 0
-25 -8 -6 -10 -9 -11 -9 -1 0 7 7 15 15 18 8 4 12 10 9 15 -3 5 -10 7 -15 4
-5 -4 -9 1 -9 9 0 23 16 19 34 -9z m61 1 c0 -13 -3 -22 -7 -19 -5 2 -8 13 -8
24 0 10 3 19 8 19 4 0 7 -11 7 -24z m35 -2 c0 -22 -2 -24 -14 -14 -8 6 -12 18
-9 26 9 23 23 16 23 -12z m-184 -1 c13 -17 13 -17 14 0 0 16 20 26 20 10 0 -5
3 -19 6 -33 4 -20 3 -22 -5 -10 -9 13 -11 13 -11 -2 0 -20 -20 -25 -20 -5 0 9
-2 9 -9 -1 -7 -11 -10 -10 -15 3 -8 21 -8 55 0 55 4 0 13 -8 20 -17z m-2222
-1 c2 -4 1 -14 -3 -21 -6 -9 -10 -7 -14 8 -5 20 7 29 17 13z m96 -18 c17 -15
29 -28 27 -31 -7 -6 -77 38 -77 48 0 16 18 10 50 -17z m2080 -39 c0 -5 -9 1
-19 14 -14 18 -20 21 -24 10 -3 -9 -6 -6 -6 7 -1 11 2 24 6 27 7 8 43 -41 43
-58z m-75 23 c1 -23 -1 -25 -14 -15 -12 10 -14 9 -8 -5 3 -10 2 -18 -3 -18
-13 0 -24 46 -15 60 13 21 40 6 40 -22z m-65 9 c-24 -20 -23 -45 2 -50 20 -4
19 -4 -4 -6 -24 -1 -28 3 -28 27 0 33 7 42 29 42 14 -1 14 -2 1 -13z m-2107
-27 c-3 -11 -9 -18 -13 -15 -7 4 -7 18 -1 43 1 2 5 1 10 -2 5 -3 7 -15 4 -26z
m267 4 c14 -35 13 -41 -8 -46 -15 -4 -18 -1 -14 18 2 13 -1 31 -8 39 -10 12
-9 15 4 15 9 0 21 -12 26 -26z m1782 -14 c-4 -26 -7 -29 -20 -18 -12 10 -14
10 -8 1 4 -7 2 -13 -3 -13 -6 0 -11 6 -11 14 0 8 -3 21 -6 30 -3 9 -1 16 5 16
6 0 11 -7 11 -15 0 -8 5 -15 10 -15 6 0 10 9 10 21 0 11 4 18 8 15 5 -3 7 -19
4 -36z m-1709 -5 c-7 -21 -13 -19 -13 6 0 11 4 18 10 14 5 -3 7 -12 3 -20z
m1575 7 c-9 -2 -19 -13 -21 -25 -3 -20 -4 -20 -11 -4 -11 23 10 48 32 39 16
-6 16 -7 0 -10z m70 -10 c13 -20 13 -22 -6 -22 -11 0 -23 -6 -25 -12 -3 -7 -6
4 -6 25 -1 43 12 46 37 9z m79 -14 c-3 -8 -6 -5 -6 6 -1 11 2 17 5 13 3 -3 4
-12 1 -19z m-2146 -21 c-10 -9 -11 -8 -5 6 3 10 9 15 12 12 3 -3 0 -11 -7 -18z
m181 -88 c7 -94 6 -105 -11 -122 -18 -19 -19 -18 -15 29 3 33 1 42 -4 29 -6
-14 -11 2 -15 55 -4 45 -2 76 3 78 6 2 10 13 10 24 0 11 5 18 13 16 8 -3 15
-40 19 -109z m127 66 c0 -5 -4 -3 -9 5 -5 8 -9 22 -9 30 0 16 17 -16 18 -35z
m188 -7 c-2 -13 -4 -5 -4 17 -1 22 1 32 4 23 2 -10 2 -28 0 -40z m1503 21 c0
-3 15 -9 33 -12 59 -9 107 -34 107 -55 0 -24 -40 -44 -138 -67 -51 -13 -71
-22 -68 -31 3 -7 0 -15 -7 -18 -7 -4 17 -4 53 -2 l65 4 -52 -13 c-28 -7 -87
-15 -130 -18 l-78 -6 60 14 c34 7 49 13 33 14 -14 1 -35 4 -45 8 -16 6 -15 8
7 14 14 4 -60 5 -165 2 -104 -2 -227 -1 -273 4 -45 5 -81 7 -79 4 54 -95 87
-220 85 -326 l-1 -70 -8 88 c-19 194 -75 322 -177 400 -19 15 -31 27 -25 27 6
0 37 -24 69 -52 l57 -53 266 1 c285 1 413 16 438 51 20 26 -5 55 -60 72 -26 8
-47 17 -47 20 0 4 18 6 40 6 22 0 40 -2 40 -6z m-856 -50 c68 -40 126 -129
166 -254 17 -55 22 -93 21 -174 0 -57 -3 -106 -6 -109 -3 -3 -5 37 -5 90 0
103 -22 210 -61 294 -30 64 -126 161 -165 167 -20 3 -23 4 -7 6 12 0 38 -8 57
-20z m656 -13 c0 -17 -82 -33 -200 -39 -47 -3 -73 -3 -57 0 15 2 27 8 27 13 0
12 64 24 208 38 13 1 22 -4 22 -12z m-873 -2 c-3 -3 -12 -4 -19 -1 -8 3 -5 6
6 6 11 1 17 -2 13 -5z m-471 -89 c19 -36 34 -70 32 -77 -4 -10 -88 131 -88
147 0 17 23 -13 56 -70z m309 65 c-3 -5 -12 -10 -18 -10 -7 0 -6 4 3 10 19 12
23 12 15 0z m-475 -10 c0 -5 -2 -10 -4 -10 -3 0 -8 5 -11 10 -3 6 -1 10 4 10
6 0 11 -4 11 -10z m720 -52 c0 -64 -5 -60 -14 10 -5 37 -4 52 4 47 5 -3 10
-29 10 -57z m64 47 c3 -8 1 -15 -4 -15 -6 0 -10 7 -10 15 0 8 2 15 4 15 2 0 6
-7 10 -15z m-207 -32 c1 -24 1 -25 -7 -8 -11 26 -12 35 -2 35 4 0 8 -12 9 -27z
m-320 -81 c19 -24 33 -46 30 -48 -8 -8 -97 117 -97 136 0 8 7 2 16 -15 8 -16
31 -49 51 -73z m413 63 c0 -5 -5 -3 -10 5 -5 8 -10 20 -10 25 0 6 5 3 10 -5 5
-8 10 -19 10 -25z m174 10 c3 -8 1 -15 -4 -15 -6 0 -10 7 -10 15 0 8 2 15 4
15 2 0 6 -7 10 -15z m-777 -119 c4 -68 2 -96 -6 -96 -7 0 -11 33 -11 102 0 56
2 99 5 96 3 -3 9 -49 12 -102z m652 10 c6 -25 11 -53 10 -63 -1 -20 -23 36
-34 86 -11 51 10 30 24 -23z m-352 12 c-3 -7 -5 -2 -5 12 0 14 2 19 5 13 2 -7
2 -19 0 -25z m464 19 c-1 -12 -15 -9 -19 4 -3 6 1 10 8 8 6 -3 11 -8 11 -12z
m-406 -17 c10 -11 16 -20 13 -20 -3 0 -13 9 -23 20 -10 11 -16 20 -13 20 3 0
13 -9 23 -20z m803 13 c-10 -2 -28 -2 -40 0 -13 2 -5 4 17 4 22 1 32 -1 23 -4z
m160 0 c-21 -2 -55 -2 -75 0 -21 2 -4 4 37 4 41 0 58 -2 38 -4z m282 -12 c0
-5 10 -11 23 -13 35 -6 -76 -29 -175 -37 -95 -7 -113 0 -45 17 l42 11 -40 -5
c-22 -3 -37 -3 -33 1 4 4 51 13 105 20 129 17 123 16 123 6z m-1055 -71 l30
-35 -38 34 c-20 19 -37 39 -37 45 0 6 3 6 8 1 4 -6 21 -26 37 -45z m-705 11
c0 -32 -14 -49 -25 -31 -9 15 3 60 15 60 6 0 10 -13 10 -29z m958 -26 c12 -25
20 -45 18 -45 -2 0 -16 20 -29 45 -14 25 -22 45 -18 45 4 0 17 -20 29 -45z
m-764 -175 c4 -55 3 -80 -3 -70 -5 8 -12 67 -15 130 -6 127 7 85 18 -60z
m-151 117 c-3 -4 7 -17 21 -28 27 -22 30 -47 8 -64 -16 -13 -6 -43 16 -47 12
-2 13 -6 5 -11 -15 -9 -61 49 -78 100 -11 30 -10 39 1 51 8 7 14 21 15 30 0
14 2 13 8 -3 5 -11 6 -24 4 -28z m437 10 c0 -18 -2 -19 -10 -7 -13 20 -13 43
0 35 6 -3 10 -16 10 -28z m-134 -39 c6 -10 4 -10 -9 1 -9 7 -17 25 -16 40 l1
26 8 -27 c4 -14 11 -32 16 -40z m404 40 c42 -30 38 -43 -5 -16 -19 13 -35 26
-35 31 0 12 9 8 40 -15z m129 -7 c12 -17 21 -43 20 -63 l-1 -33 -12 36 c-13
43 -33 69 -53 69 -8 0 -11 5 -8 10 11 18 33 10 54 -19z m131 -29 c0 -4 -19 -8
-43 -8 l-42 -2 35 13 c34 12 50 11 50 -3z m53 -2 c3 -11 1 -18 -4 -14 -5 3 -9
12 -9 20 0 20 7 17 13 -6z m-193 -31 c0 -18 -18 -9 -23 12 -4 16 -3 18 9 8 8
-6 14 -15 14 -20z m-211 -63 c1 -42 -5 -29 -12 24 -4 30 -3 38 3 25 5 -11 9
-33 9 -49z m963 19 c6 -30 -11 -34 -19 -5 -4 14 -12 19 -27 16 -53 -11 -276
-16 -276 -7 0 9 50 13 246 19 69 2 72 1 76 -23z m81 -32 c-7 -2 -21 -2 -30 0
-10 3 -4 5 12 5 17 0 24 -2 18 -5z m-1433 -13 c0 -5 -4 -10 -10 -10 -5 0 -10
5 -10 10 0 6 5 10 10 10 6 0 10 -4 10 -10z m685 -50 c16 -22 25 -43 22 -46 -4
-5 -46 50 -72 96 -17 30 22 -9 50 -50z m670 50 c-16 -4 -46 -8 -65 -8 l-35 1
35 7 c19 4 49 7 65 8 l30 0 -30 -8z m-1485 -27 c0 -22 -2 -25 -10 -13 -13 20
-13 40 0 40 6 0 10 -12 10 -27z m1327 11 c-3 -3 -12 -4 -19 -1 -8 3 -5 6 6 6
11 1 17 -2 13 -5z m-607 -24 c0 -5 -2 -10 -4 -10 -3 0 -8 5 -11 10 -3 6 -1 10
4 10 6 0 11 -4 11 -10z m188 -85 c-5 -5 -78 78 -78 89 0 3 19 -15 41 -39 23
-25 40 -48 37 -50z m149 63 c-3 -7 -5 -2 -5 12 0 14 2 19 5 13 2 -7 2 -19 0
-25z m453 13 c0 -16 -10 -20 -52 -26 -29 -3 -62 -9 -73 -11 -18 -4 -18 -4 -4
8 9 7 14 19 12 26 -3 8 8 12 37 12 25 0 39 -4 35 -10 -3 -5 1 -10 9 -10 9 0
16 7 16 15 0 8 5 15 10 15 6 0 10 -9 10 -19z m-793 -78 c-2 -16 -4 -5 -4 22 0
28 2 40 4 28 2 -13 2 -35 0 -50z m20 -45 c-3 -8 -6 -5 -6 6 -1 11 2 17 5 13 3
-3 4 -12 1 -19z m-108 -54 c9 -11 1 -5 -16 15 -18 19 -33 39 -33 45 0 6 7 -1
17 -14 9 -14 23 -34 32 -46z m255 16 c-6 -5 -24 21 -24 34 0 6 6 1 14 -10 8
-10 12 -21 10 -24z m-125 -41 c0 8 3 12 6 10 2 -3 2 -15 -2 -27 -8 -33 -23
-16 -22 26 l1 37 8 -30 c4 -16 8 -24 9 -16z m71 -5 c0 -8 -4 -12 -10 -9 -5 3
-10 13 -10 21 0 8 5 12 10 9 6 -3 10 -13 10 -21z m-127 -14 c3 -11 1 -18 -4
-14 -5 3 -9 12 -9 20 0 20 7 17 13 -6z"/>
<path d="M2230 1550 c0 -5 5 -10 10 -10 6 0 10 5 10 10 0 6 -4 10 -10 10 -5 0
-10 -4 -10 -10z"/>
<path d="M1170 1134 c0 -8 5 -12 10 -9 6 3 10 10 10 16 0 5 -4 9 -10 9 -5 0
-10 -7 -10 -16z"/>
<path d="M1935 1080 c-3 -5 -1 -10 4 -10 6 0 11 5 11 10 0 6 -2 10 -4 10 -3 0
-8 -4 -11 -10z"/>
<path d="M2368 1073 c7 -3 16 -2 19 1 4 3 -2 6 -13 5 -11 0 -14 -3 -6 -6z"/>
<path d="M390 549 c0 -5 -5 -7 -11 -3 -8 4 -8 0 0 -15 15 -27 16 -26 17 4 1
14 0 25 -2 25 -2 0 -4 -5 -4 -11z"/>
<path d="M6295 2821 c-3 -5 -2 -12 3 -15 5 -3 9 1 9 9 0 17 -3 19 -12 6z"/>
<path d="M2176 2795 c-11 -8 -17 -17 -14 -21 8 -8 48 14 48 26 0 14 -12 12
-34 -5z"/>
<path d="M2030 2750 c-30 -16 -51 -29 -47 -30 4 0 21 7 37 15 26 13 29 13 33
-3 4 -13 5 -13 6 4 0 12 11 26 24 32 12 6 18 11 12 11 -5 0 -35 -13 -65 -29z"/>
<path d="M2112 2762 c-18 -10 -30 -21 -26 -24 9 -9 52 12 58 28 6 17 8 17 -32
-4z"/>
<path d="M2153 2748 c4 -11 -4 -23 -27 -36 -18 -11 -46 -28 -62 -38 l-29 -19
25 35 c20 29 21 32 5 20 -11 -8 -24 -19 -28 -25 -5 -5 -5 0 -2 13 4 12 2 22
-4 22 -5 0 -8 -13 -6 -29 3 -26 0 -31 -31 -41 -20 -7 -33 -14 -31 -16 2 -3 17
0 33 7 40 15 86 20 79 9 -4 -6 -13 -10 -21 -10 -8 0 -14 -4 -14 -10 0 -5 2
-10 5 -10 6 0 48 23 55 30 3 3 32 19 65 37 62 33 91 64 38 41 -15 -7 -30 -15
-33 -18 -6 -7 -80 -50 -86 -50 -2 0 -4 4 -4 9 0 4 27 23 60 40 57 30 79 48 44
34 -9 -3 -20 0 -26 8 -8 11 -9 11 -5 -3z"/>
<path d="M1953 2690 c-13 -5 -23 -14 -23 -20 0 -9 52 11 69 26 8 7 -24 3 -46
-6z"/>
<path d="M1874 2655 c-15 -11 -16 -14 -4 -15 21 0 44 16 33 23 -6 4 -19 0 -29
-8z"/>
<path d="M1905 2615 c-25 -12 -26 -14 -5 -9 28 7 60 23 45 23 -5 0 -23 -6 -40
-14z"/>
<path d="M1974 2615 c-50 -16 -87 -35 -81 -41 5 -6 118 35 132 47 12 12 0 10
-51 -6z"/>
<path d="M2083 2623 c-13 -2 -23 -12 -23 -21 0 -12 3 -13 12 -4 7 7 20 12 30
12 10 0 18 5 18 10 0 6 -3 9 -7 9 -5 -1 -18 -4 -30 -6z"/>
<path d="M470 1624 c-42 -28 -49 -42 -36 -69 11 -26 30 -32 41 -15 4 6 -1 7
-11 3 -14 -5 -16 -3 -11 11 4 10 3 15 -3 11 -6 -3 -10 -3 -10 2 0 17 18 34 56
53 27 13 33 19 19 20 -11 0 -32 -7 -45 -16z"/>
<path d="M573 1615 c-11 -24 -3 -77 13 -82 13 -4 26 59 14 67 -4 3 -9 12 -12
20 -4 12 -7 11 -15 -5z"/>
<path d="M480 1570 c-9 -6 -10 -10 -3 -10 6 0 15 5 18 10 8 12 4 12 -15 0z"/>
<path d="M55 1559 c-4 -6 -5 -12 -2 -15 2 -3 7 2 10 11 7 17 1 20 -8 4z"/>
<path d="M80 1566 c0 -2 8 -10 18 -17 15 -13 16 -12 3 4 -13 16 -21 21 -21 13z"/>
<path d="M206 1551 c-3 -5 1 -14 9 -21 12 -10 15 -10 15 3 0 19 -16 31 -24 18z"/>
<path d="M638 1554 c-3 -5 -20 -56 -37 -114 -30 -104 -30 -105 -12 -145 10
-22 21 -52 24 -67 4 -16 11 -28 15 -28 4 0 29 25 56 56 46 53 48 58 43 102 -8
82 -73 223 -89 196z"/>
<path d="M297 1542 c-3 -4 3 -17 13 -29 l17 -22 12 26 c11 23 10 25 -3 14 -16
-14 -40 -6 -31 10 4 5 4 9 1 9 -3 0 -7 -3 -9 -8z"/>
<path d="M490 1533 c-19 -9 -38 -16 -41 -15 -8 1 -11 -87 -4 -129 l6 -37 32
13 c31 13 32 17 42 95 6 45 8 83 5 85 -3 2 -21 -4 -40 -12z"/>
<path d="M175 1530 c3 -5 11 -10 16 -10 6 0 7 5 4 10 -3 6 -11 10 -16 10 -6 0
-7 -4 -4 -10z"/>
<path d="M261 1519 c0 -13 3 -18 6 -10 5 11 7 11 14 0 5 -8 9 -9 9 -3 0 6 -7
17 -15 24 -13 10 -15 9 -14 -11z"/>
<path d="M373 1514 c-3 -9 -1 -19 6 -23 6 -4 9 -16 5 -27 -5 -16 -4 -16 5 -4
14 19 14 70 1 70 -6 0 -13 -7 -17 -16z"/>
<path d="M724 1227 c-7 -19 10 -90 23 -94 15 -5 26 63 13 87 -12 23 -28 26
-36 7z"/>
<path d="M120 1180 c0 -6 7 -10 15 -10 8 0 15 2 15 4 0 2 -7 6 -15 10 -8 3
-15 1 -15 -4z"/>
<path d="M36 1155 c2 -11 4 -23 4 -27 0 -5 5 -8 11 -8 5 0 7 5 3 11 -3 6 0 16
7 21 11 8 10 9 -3 4 -9 -2 -19 0 -21 7 -2 7 -3 3 -1 -8z"/>
<path d="M80 1167 c8 -7 15 -18 16 -24 1 -7 2 -23 3 -35 1 -14 12 -28 28 -36
20 -9 24 -9 15 0 -7 7 -12 23 -13 38 0 23 -1 23 -9 5 -8 -18 -9 -18 -10 5 -1
14 -2 33 -1 43 2 12 -5 17 -21 17 -20 -1 -21 -2 -8 -13z"/>
<path d="M125 1150 c-3 -5 -2 -10 4 -10 5 0 13 5 16 10 3 6 2 10 -4 10 -5 0
-13 -4 -16 -10z"/>
<path d="M224 1123 c-2 -20 15 -35 17 -15 0 4 2 14 4 23 1 9 -2 16 -9 16 -6 0
-12 -11 -12 -24z"/>
<path d="M19 1078 c-3 -22 -1 -34 4 -29 5 5 7 21 5 37 -3 27 -4 26 -9 -8z"/>
<path d="M40 1050 c0 -5 5 -10 10 -10 6 0 10 5 10 10 0 6 -4 10 -10 10 -5 0
-10 -4 -10 -10z"/>
<path d="M185 990 c-4 -7 -2 -16 5 -20 15 -9 40 -2 40 12 0 5 -5 6 -11 2 -6
-3 -15 -1 -19 6 -6 9 -9 10 -15 0z"/>
<path d="M285 581 c-3 -5 -1 -12 5 -16 5 -3 10 1 10 9 0 18 -6 21 -15 7z"/>
<path d="M2539 533 c-13 -16 -12 -17 4 -4 16 13 21 21 13 21 -2 0 -10 -8 -17
-17z"/>
<path d="M2760 520 c0 -5 5 -10 11 -10 5 0 7 5 4 10 -3 6 -8 10 -11 10 -2 0
-4 -4 -4 -10z"/>
<path d="M2905 500 c-8 -13 9 -20 24 -11 10 6 9 10 -3 14 -8 3 -18 2 -21 -3z"/>
<path d="M290 484 c0 -17 22 -14 28 4 2 7 -3 12 -12 12 -9 0 -16 -7 -16 -16z"/>
<path d="M3095 440 c-4 -6 3 -10 14 -10 25 0 27 6 6 13 -8 4 -17 2 -20 -3z"/>
<path d="M271 427 c-9 -12 -7 -14 9 -13 11 0 21 5 21 11 1 16 -17 17 -30 2z"/>
<path d="M230 390 c0 -5 5 -10 10 -10 6 0 10 5 10 10 0 6 -4 10 -10 10 -5 0
-10 -4 -10 -10z"/>
<path d="M330 380 c0 -5 5 -10 10 -10 6 0 10 5 10 10 0 6 -4 10 -10 10 -5 0
-10 -4 -10 -10z"/>
<path d="M362 379 c2 -6 8 -10 13 -10 5 0 11 4 13 10 2 6 -4 11 -13 11 -9 0
-15 -5 -13 -11z"/>
<path d="M390 361 c0 -5 -9 -11 -20 -14 -25 -6 -26 -27 -2 -27 21 0 56 33 45
43 -9 10 -23 9 -23 -2z"/>
<path d="M940 334 c0 -17 22 -14 28 4 2 7 -3 12 -12 12 -9 0 -16 -7 -16 -16z"/>
<path d="M3007 339 c7 -7 15 -10 18 -7 3 3 -2 9 -12 12 -14 6 -15 5 -6 -5z"/>
<path d="M1988 279 c-72 -8 -129 -29 -73 -28 17 0 56 4 87 8 31 4 54 3 52 -1
-3 -4 5 -7 18 -5 17 1 22 -3 20 -15 -2 -11 3 -18 13 -18 8 0 15 -7 15 -15 0
-8 -8 -15 -17 -15 -12 0 -14 -3 -6 -11 11 -11 110 -15 121 -5 3 3 -11 6 -31 6
-39 0 -41 4 -37 62 1 23 -2 26 -24 24 -14 -2 -36 2 -48 8 -15 7 -47 9 -90 5z"/>
<path d="M3125 261 c-7 -13 17 -24 40 -19 9 1 16 8 16 13 0 14 -48 19 -56 6z"/>
<path d="M2064 235 c-10 -8 -29 -15 -42 -15 -15 0 -21 -4 -16 -12 4 -6 3 -8
-3 -5 -5 3 -23 2 -39 -3 l-29 -8 35 -2 c70 -4 116 11 116 40 0 11 -1 20 -1 20
-1 0 -10 -7 -21 -15z m-9 -25 c-3 -5 -12 -10 -18 -10 -7 0 -6 4 3 10 19 12 23
12 15 0z"/>
<path d="M2249 243 c-1 -5 -1 -12 0 -16 1 -4 -3 -17 -9 -27 -10 -18 -9 -19 15
-8 15 7 21 14 15 18 -6 4 -8 14 -4 23 3 10 1 17 -5 17 -6 0 -12 -3 -12 -7z"/>
<path d="M3264 209 c-3 -6 0 -15 7 -20 9 -5 16 -3 21 9 6 16 7 16 7 0 1 -20 9
-22 30 -9 20 13 4 31 -29 31 -16 0 -32 -5 -36 -11z"/>
<path d="M980 191 c0 -10 6 -23 13 -30 11 -8 13 -5 9 19 -5 33 -22 41 -22 11z"/>
<path d="M1013 127 c0 -8 6 -14 14 -14 9 0 10 4 2 14 -14 16 -16 16 -16 0z"/>
<path d="M1480 99 c0 -5 5 -7 10 -4 6 3 10 8 10 11 0 2 -4 4 -10 4 -5 0 -10
-5 -10 -11z"/>
<path d="M1548 73 c7 -3 16 -2 19 1 4 3 -2 6 -13 5 -11 0 -14 -3 -6 -6z"/>
<path d="M1010 30 c-9 -6 -10 -10 -3 -10 6 0 15 5 18 10 8 12 4 12 -15 0z"/>
</g>
</svg>
