<?xml version="1.0" standalone="no"?>
<!DOCTYPE svg PUBLIC "-//W3C//DTD SVG 20010904//EN"
 "http://www.w3.org/TR/2001/REC-SVG-20010904/DTD/svg10.dtd">
<svg version="1.0" xmlns="http://www.w3.org/2000/svg"
 width="615.000000pt" height="463.000000pt" viewBox="0 0 615.000000 463.000000"
 preserveAspectRatio="xMidYMid meet">

<g transform="translate(0.000000,463.000000) scale(0.100000,-0.100000)"
fill="#000000" stroke="none">
<path d="M0 2315 l0 -2315 3075 0 3075 0 0 2315 0 2315 -3075 0 -3075 0 0
-2315z m4070 225 l0 -990 -995 0 -995 0 0 990 0 990 995 0 995 0 0 -990z
m-1886 -1290 l51 -95 3 98 c2 77 6 97 17 97 12 0 15 -22 15 -126 0 -122 -1
-125 -21 -122 -16 2 -37 32 -78 108 l-56 105 -3 -108 c-2 -80 -6 -107 -15
-104 -12 4 -23 206 -12 235 3 7 15 12 27 10 15 -2 35 -29 72 -98z m305 86 c34
-18 51 -54 51 -112 0 -81 -36 -124 -104 -124 -80 0 -122 53 -113 143 3 41 11
56 36 79 36 32 85 37 130 14z m271 0 c0 -10 -14 -16 -42 -18 -29 -2 -43 -8
-44 -18 -1 -8 -2 -57 -3 -107 -1 -76 -4 -93 -16 -93 -12 0 -15 19 -15 110 l0
110 -40 0 c-29 0 -40 4 -40 15 0 12 18 15 100 15 80 0 100 -3 100 -14z m307
-3 c3 -8 -15 -13 -59 -15 l-63 -3 -3 -32 -3 -33 55 0 c43 0 56 -3 56 -15 0
-12 -13 -15 -55 -15 l-55 0 0 -61 c0 -44 -3 -60 -12 -57 -9 3 -14 40 -16 127
l-3 122 77 -3 c49 -2 79 -7 81 -15z m200 -3 c60 -36 67 -148 12 -202 -22 -22
-37 -28 -73 -28 -64 0 -106 38 -113 103 -13 115 81 184 174 127z m131 -80 c1
-52 8 -100 14 -107 6 -7 25 -13 44 -13 51 0 64 27 64 132 0 72 3 88 15 88 12
0 15 -18 15 -100 0 -94 -2 -103 -25 -125 -33 -34 -93 -34 -131 -2 -25 22 -28
31 -32 110 -5 92 0 121 21 115 8 -3 13 -34 15 -98z m317 0 l50 -95 3 98 c2 77
6 97 17 97 12 0 15 -22 15 -125 0 -117 -1 -125 -19 -125 -15 0 -35 28 -78 108
l-58 107 -3 -108 c-2 -80 -6 -107 -15 -104 -12 4 -23 206 -12 235 3 7 15 12
27 10 17 -2 35 -27 73 -98z m259 90 c55 -12 87 -48 93 -101 9 -84 -62 -144
-162 -137 l-40 3 -3 109 c-1 61 0 116 2 123 6 15 54 17 110 3z"/>
<path d="M2600 3070 l0 -110 120 0 120 0 0 110 0 110 -120 0 -120 0 0 -110z"/>
<path d="M3290 3070 l0 -110 120 0 120 0 0 110 0 110 -120 0 -120 0 0 -110z"/>
<path d="M2840 2440 c-191 -40 -372 -135 -527 -275 l-53 -47 0 -109 0 -110 86
85 c420 418 1042 417 1461 -2 l83 -83 0 110 0 109 -52 47 c-163 146 -361 246
-555 280 -119 21 -335 19 -443 -5z"/>
<path d="M2381 1301 c-31 -31 -38 -88 -15 -131 16 -30 25 -35 60 -38 35 -3 45
1 63 24 28 36 28 102 0 138 -25 32 -79 36 -108 7z"/>
<path d="M3158 1309 c-42 -24 -41 -146 2 -169 22 -12 70 -13 86 -2 38 25 46
114 13 156 -22 28 -68 35 -101 15z"/>
<path d="M3900 1225 l0 -95 33 0 c49 0 81 21 94 62 23 70 -21 128 -97 128
l-30 0 0 -95z"/>
</g>
</svg>
