<?xml version="1.0" standalone="no"?>
<!DOCTYPE svg PUBLIC "-//W3C//DTD SVG 20010904//EN"
 "http://www.w3.org/TR/2001/REC-SVG-20010904/DTD/svg10.dtd">
<svg version="1.0" xmlns="http://www.w3.org/2000/svg"
 width="16" height="16" viewBox="0 0 225 225"
 preserveAspectRatio="xMidYMid meet"
 fill="#ff5000">

<g transform="translate(0.000000,225.000000) scale(0.100000,-0.100000)" stroke="none">
<path d="M812 2050 c-289 -52 -520 -264 -598 -551 -24 -88 -25 -280 -1 -369 9
-36 38 -108 64 -160 39 -79 60 -109 132 -180 151 -150 288 -209 498 -218 179
-7 298 25 446 120 l48 31 268 -266 c241 -241 270 -267 300 -267 45 0 91 46 91
91 0 30 -26 59 -267 300 l-266 268 31 48 c95 148 127 267 120 446 -9 210 -68
347 -218 498 -71 72 -101 93 -180 132 -52 26 -122 54 -155 63 -73 19 -241 26
-313 14z m241 -185 c109 -23 192 -69 277 -155 119 -118 170 -238 170 -397 0
-185 -85 -351 -234 -458 -95 -68 -181 -97 -301 -102 -176 -9 -298 39 -425 167
-142 141 -195 314 -155 505 46 218 219 393 435 439 85 19 150 19 233 1z"/>
</g>
</svg>
